<mxfile host="app.diagrams.net" agent="Mozilla/5.0 (Windows NT 10.0; Win64; x64) AppleWebKit/537.36 (KHTML, like Gecko) Chrome/137.0.0.0 Safari/537.36 Edg/137.0.0.0" version="27.1.5">
  <diagram name="페이지-1" id="-MiSBTwNXKAZcfKt-5eQ">
    <mxGraphModel dx="815" dy="879" grid="1" gridSize="10" guides="1" tooltips="1" connect="1" arrows="1" fold="1" page="1" pageScale="1" pageWidth="827" pageHeight="1169" math="0" shadow="0">
      <root>
        <mxCell id="0" />
        <mxCell id="1" parent="0" />
        <mxCell id="VvotLu2FkdMKU2ZjlghN-2" value="Pool" style="swimlane;childLayout=stackLayout;resizeParent=1;resizeParentMax=0;horizontal=1;startSize=20;horizontalStack=0;html=1;" vertex="1" parent="1">
          <mxGeometry x="93" y="170" width="710" height="620" as="geometry" />
        </mxCell>
        <mxCell id="VvotLu2FkdMKU2ZjlghN-3" value="사용자 입력" style="swimlane;startSize=20;horizontal=0;html=1;" vertex="1" parent="VvotLu2FkdMKU2ZjlghN-2">
          <mxGeometry y="20" width="710" height="240" as="geometry" />
        </mxCell>
        <mxCell id="VvotLu2FkdMKU2ZjlghN-8" value="" style="edgeStyle=orthogonalEdgeStyle;rounded=0;orthogonalLoop=1;jettySize=auto;html=1;" edge="1" parent="VvotLu2FkdMKU2ZjlghN-3" source="VvotLu2FkdMKU2ZjlghN-6" target="VvotLu2FkdMKU2ZjlghN-7">
          <mxGeometry relative="1" as="geometry" />
        </mxCell>
        <mxCell id="VvotLu2FkdMKU2ZjlghN-6" value="start" style="ellipse;whiteSpace=wrap;html=1;" vertex="1" parent="VvotLu2FkdMKU2ZjlghN-3">
          <mxGeometry x="309.5" y="20" width="60" height="60" as="geometry" />
        </mxCell>
        <mxCell id="VvotLu2FkdMKU2ZjlghN-7" value="이미지/텍스트 입력" style="rounded=0;whiteSpace=wrap;html=1;" vertex="1" parent="VvotLu2FkdMKU2ZjlghN-3">
          <mxGeometry x="279.5" y="130" width="120" height="60" as="geometry" />
        </mxCell>
        <mxCell id="VvotLu2FkdMKU2ZjlghN-4" value="내부 프로세스" style="swimlane;startSize=20;horizontal=0;html=1;" vertex="1" parent="VvotLu2FkdMKU2ZjlghN-2">
          <mxGeometry y="260" width="710" height="360" as="geometry" />
        </mxCell>
        <mxCell id="VvotLu2FkdMKU2ZjlghN-12" value="" style="edgeStyle=orthogonalEdgeStyle;rounded=0;orthogonalLoop=1;jettySize=auto;html=1;" edge="1" parent="VvotLu2FkdMKU2ZjlghN-4" source="VvotLu2FkdMKU2ZjlghN-9" target="VvotLu2FkdMKU2ZjlghN-11">
          <mxGeometry relative="1" as="geometry" />
        </mxCell>
        <mxCell id="VvotLu2FkdMKU2ZjlghN-9" value="딥러닝" style="rounded=1;whiteSpace=wrap;html=1;" vertex="1" parent="VvotLu2FkdMKU2ZjlghN-4">
          <mxGeometry x="279.5" y="20" width="120" height="60" as="geometry" />
        </mxCell>
        <mxCell id="VvotLu2FkdMKU2ZjlghN-14" value="" style="edgeStyle=orthogonalEdgeStyle;rounded=0;orthogonalLoop=1;jettySize=auto;html=1;" edge="1" parent="VvotLu2FkdMKU2ZjlghN-4" source="VvotLu2FkdMKU2ZjlghN-11" target="VvotLu2FkdMKU2ZjlghN-13">
          <mxGeometry relative="1" as="geometry" />
        </mxCell>
        <mxCell id="VvotLu2FkdMKU2ZjlghN-15" value="yes" style="edgeLabel;html=1;align=center;verticalAlign=middle;resizable=0;points=[];" vertex="1" connectable="0" parent="VvotLu2FkdMKU2ZjlghN-14">
          <mxGeometry x="-0.4661" relative="1" as="geometry">
            <mxPoint x="-13" y="14" as="offset" />
          </mxGeometry>
        </mxCell>
        <mxCell id="VvotLu2FkdMKU2ZjlghN-17" value="" style="edgeStyle=orthogonalEdgeStyle;rounded=0;orthogonalLoop=1;jettySize=auto;html=1;" edge="1" parent="VvotLu2FkdMKU2ZjlghN-4" source="VvotLu2FkdMKU2ZjlghN-11" target="VvotLu2FkdMKU2ZjlghN-16">
          <mxGeometry relative="1" as="geometry" />
        </mxCell>
        <mxCell id="VvotLu2FkdMKU2ZjlghN-18" value="no" style="edgeLabel;html=1;align=center;verticalAlign=middle;resizable=0;points=[];" vertex="1" connectable="0" parent="VvotLu2FkdMKU2ZjlghN-17">
          <mxGeometry x="0.0632" y="2" relative="1" as="geometry">
            <mxPoint y="-8" as="offset" />
          </mxGeometry>
        </mxCell>
        <mxCell id="VvotLu2FkdMKU2ZjlghN-11" value="분석 성공 여부" style="rhombus;whiteSpace=wrap;html=1;" vertex="1" parent="VvotLu2FkdMKU2ZjlghN-4">
          <mxGeometry x="282" y="140" width="115" height="70" as="geometry" />
        </mxCell>
        <mxCell id="VvotLu2FkdMKU2ZjlghN-13" value="분석 결과와 관련된 레시피를 DB에서 검색" style="rounded=1;whiteSpace=wrap;html=1;" vertex="1" parent="VvotLu2FkdMKU2ZjlghN-4">
          <mxGeometry x="279.5" y="260" width="120" height="60" as="geometry" />
        </mxCell>
        <mxCell id="VvotLu2FkdMKU2ZjlghN-16" value="실패 알람" style="rounded=1;whiteSpace=wrap;html=1;" vertex="1" parent="VvotLu2FkdMKU2ZjlghN-4">
          <mxGeometry x="487" y="145" width="120" height="60" as="geometry" />
        </mxCell>
        <mxCell id="VvotLu2FkdMKU2ZjlghN-10" value="" style="edgeStyle=orthogonalEdgeStyle;rounded=0;orthogonalLoop=1;jettySize=auto;html=1;" edge="1" parent="VvotLu2FkdMKU2ZjlghN-2" source="VvotLu2FkdMKU2ZjlghN-7" target="VvotLu2FkdMKU2ZjlghN-9">
          <mxGeometry relative="1" as="geometry" />
        </mxCell>
        <mxCell id="VvotLu2FkdMKU2ZjlghN-5" value="결과" style="swimlane;startSize=20;horizontal=0;html=1;" vertex="1" parent="1">
          <mxGeometry x="93" y="790" width="710" height="320" as="geometry" />
        </mxCell>
        <mxCell id="VvotLu2FkdMKU2ZjlghN-27" value="" style="edgeStyle=orthogonalEdgeStyle;rounded=0;orthogonalLoop=1;jettySize=auto;html=1;" edge="1" parent="VvotLu2FkdMKU2ZjlghN-5" source="VvotLu2FkdMKU2ZjlghN-20" target="VvotLu2FkdMKU2ZjlghN-24">
          <mxGeometry relative="1" as="geometry" />
        </mxCell>
        <mxCell id="VvotLu2FkdMKU2ZjlghN-20" value="관련된 레시피 출력" style="rounded=1;whiteSpace=wrap;html=1;" vertex="1" parent="VvotLu2FkdMKU2ZjlghN-5">
          <mxGeometry x="277" y="70" width="120" height="60" as="geometry" />
        </mxCell>
        <mxCell id="VvotLu2FkdMKU2ZjlghN-24" value="end" style="ellipse;whiteSpace=wrap;html=1;" vertex="1" parent="VvotLu2FkdMKU2ZjlghN-5">
          <mxGeometry x="307" y="200" width="60" height="60" as="geometry" />
        </mxCell>
        <mxCell id="VvotLu2FkdMKU2ZjlghN-26" style="edgeStyle=orthogonalEdgeStyle;rounded=0;orthogonalLoop=1;jettySize=auto;html=1;entryX=0.5;entryY=0;entryDx=0;entryDy=0;" edge="1" parent="1" source="VvotLu2FkdMKU2ZjlghN-13" target="VvotLu2FkdMKU2ZjlghN-20">
          <mxGeometry relative="1" as="geometry" />
        </mxCell>
      </root>
    </mxGraphModel>
  </diagram>
</mxfile>
